<svg width="1152" height="700" viewBox="0 0 1152 700" fill="none" xmlns="http://www.w3.org/2000/svg">
<g id="IDE">
<rect width="1152" height="700" rx="10" fill="#2B2B2B"/>
<g id="Shell">
<rect id="Rectangle 2" x="30" y="504" width="1122" height="196" fill="#2B2B2B"/>
<rect id="Rectangle 3" x="30" y="504" width="1122" height="29.446" fill="#3C3F41"/>
<g id="Polygon 2" filter="url(#filter0_f)">
<path d="M54 553L36 563.392V542.608L54 553Z" fill="#24C220"/>
</g>
<g id="Ellipse 5" filter="url(#filter1_f)">
<circle cx="41.5" cy="582.5" r="7.5" fill="#DF1919"/>
<circle cx="41.5" cy="582.5" r="7" stroke="#961414"/>
</g>
<g id="play">
<rect id="Rectangle 9" x="34" y="598" width="15" height="18" fill="#C4C4C4"/>
<rect id="Rectangle 10" x="39" y="598" width="5" height="18" fill="#454646"/>
</g>
</g>
<g id="Line counter" filter="url(#filter2_f)">
<path id="Rectangle 4" d="M30 75H60V504H30V75Z" fill="#313335"/>
<g id="1 2 3 4 5 6 7 8 9 10 11 12 13" style="mix-blend-mode:lighten" opacity="0.45">
<path d="M34.5469 103.234V95.0664L33.1172 96.332V95.1309L34.5469 93.918C35.3281 93.918 35.7188 94.3008 35.7188 95.0664V102.707L34.6055 103.234H34.5469ZM35.3027 120C34.3535 120 33.8789 119.613 33.8789 118.84C33.8789 117.586 34.8066 116.543 36.6621 115.711C37.7949 115.203 38.3613 114.564 38.3613 113.795C38.3613 113.275 38.2402 112.875 37.998 112.594C37.6738 112.219 37.2305 112.031 36.668 112.031C35.9531 112.031 35.3789 112.453 34.9453 113.297H34.8867L33.9375 112.84C34.5938 111.637 35.5039 111.035 36.668 111.035C37.6133 111.035 38.3359 111.318 38.8359 111.885C39.3125 112.424 39.5508 113.082 39.5508 113.859C39.5508 114.953 38.8027 115.855 37.3066 116.566C35.7207 117.32 34.9277 118.008 34.9277 118.629C34.9277 118.879 35.0527 119.004 35.3027 119.004H37.998C38.459 119.004 38.748 118.775 38.8652 118.318H38.9238L39.8027 118.734C39.5684 119.578 38.9668 120 37.998 120H35.3027ZM33.7617 135.312C33.7617 135.312 34.0781 135.16 34.7109 134.855H34.7695C35.2031 135.699 35.7773 136.121 36.4922 136.121C37.043 136.121 37.4902 135.924 37.834 135.529C38.127 135.193 38.2734 134.766 38.2734 134.246C38.2734 133.719 38.1465 133.322 37.8926 133.057C37.5996 132.752 37.1289 132.6 36.4805 132.6L35.7891 131.938L37.6348 129.148H34.5469V129.09L34.9863 128.152H37.7109C38.4102 128.152 38.7598 128.422 38.7598 128.961C38.7598 129.258 38.584 129.652 38.2324 130.145L37.1074 131.674C37.6855 131.689 38.1992 131.893 38.6484 132.283C39.1797 132.744 39.4453 133.395 39.4453 134.234C39.4453 135.031 39.1836 135.709 38.6602 136.268C38.125 136.834 37.4023 137.117 36.4922 137.117C35.3281 137.117 34.418 136.516 33.7617 135.312ZM37.3066 154.234V151.902H34.4238C33.6699 151.902 33.293 151.637 33.293 151.105C33.293 150.82 33.3926 150.531 33.5918 150.238L37.3066 144.918C38.0879 144.918 38.4785 145.301 38.4785 146.066V150.906H39.4863V150.965L39.0469 151.902H38.4785V153.707L37.3652 154.234H37.3066ZM37.3066 150.906V146.605L34.3418 150.906H37.3066ZM33.8789 169.312L34.8281 168.855H34.8867C35.3164 169.699 35.8906 170.121 36.6094 170.121C37.1602 170.121 37.6074 169.924 37.9512 169.529C38.2441 169.193 38.3906 168.766 38.3906 168.246C38.3906 167.664 38.2188 167.227 37.875 166.934C37.5352 166.637 37.1113 166.488 36.6035 166.488C36.2012 166.488 35.832 166.611 35.4961 166.857L34.2715 166.266L34.9453 163.418C35.1484 162.574 35.75 162.152 36.75 162.152H39.0703V162.211L38.6309 163.148H36.8379C36.3848 163.148 36.0957 163.377 35.9707 163.834L35.4258 165.832C35.7812 165.582 36.1777 165.457 36.6152 165.457C37.4355 165.457 38.1191 165.691 38.666 166.16C39.2637 166.676 39.5625 167.367 39.5625 168.234C39.5625 169.031 39.3008 169.709 38.7773 170.268C38.2422 170.834 37.5195 171.117 36.6094 171.117C35.4453 171.117 34.5352 170.516 33.8789 169.312ZM39.9023 180.84L38.9531 181.297H38.8945C38.4609 180.453 37.8867 180.031 37.1719 180.031C36.4492 180.031 35.875 180.453 35.4492 181.297C35.1836 181.824 35.0508 182.584 35.0508 183.576C35.5547 182.764 36.2598 182.355 37.166 182.352C38.0723 182.352 38.7969 182.639 39.3398 183.213C39.8672 183.771 40.1309 184.445 40.1309 185.234C40.1309 186.031 39.8672 186.709 39.3398 187.268C38.8047 187.834 38.082 188.117 37.1719 188.117C36.0039 188.117 35.0938 187.516 34.4414 186.312C34.0664 185.621 33.8789 184.709 33.8789 183.576C33.8789 182.439 34.0664 181.527 34.4414 180.84C35.0938 179.637 36.0039 179.035 37.1719 179.035C38.3359 179.035 39.2461 179.637 39.9023 180.84ZM37.1719 183.359C36.6797 183.359 36.2441 183.551 35.8652 183.934C35.5449 184.258 35.3848 184.695 35.3848 185.246C35.3848 185.734 35.5391 186.148 35.8477 186.488C36.2305 186.91 36.6719 187.121 37.1719 187.121C37.75 187.121 38.2129 186.914 38.5605 186.5C38.8262 186.184 38.959 185.766 38.959 185.246C38.959 184.699 38.8281 184.279 38.5664 183.986C38.1914 183.568 37.7266 183.359 37.1719 183.359ZM34.3008 204.736L37.0137 197.148H33.0586V197.09L33.498 196.152H37.0137C37.7715 196.152 38.1504 196.504 38.1504 197.207C38.1504 197.375 38.0195 197.812 37.7578 198.52L35.4141 205.234H35.3555L34.3008 204.736ZM33.8789 219.234C33.8789 218.469 34.1758 217.809 34.7695 217.254C34.8945 217.137 35.043 217.033 35.2148 216.943C34.6719 216.506 34.4004 215.98 34.4004 215.367C34.4004 214.586 34.6426 213.996 35.127 213.598C35.5879 213.223 36.1562 213.035 36.832 213.035C37.5078 213.035 38.0762 213.223 38.5371 213.598C39.0215 213.992 39.2637 214.582 39.2637 215.367C39.2637 215.98 38.9922 216.506 38.4492 216.943C38.6211 217.033 38.7695 217.137 38.8945 217.254C39.4883 217.809 39.7852 218.469 39.7852 219.234C39.7852 220.031 39.5234 220.709 39 221.268C38.4648 221.834 37.7422 222.117 36.832 222.117C35.918 222.117 35.1953 221.834 34.6641 221.268C34.1406 220.709 33.8789 220.031 33.8789 219.234ZM36.832 221.121C37.4023 221.121 37.8672 220.912 38.2266 220.494C38.4844 220.193 38.6133 219.777 38.6133 219.246C38.6133 218.777 38.4746 218.389 38.1973 218.08C37.8574 217.701 37.4023 217.512 36.832 217.512C36.2773 217.512 35.8242 217.699 35.4727 218.074C35.1914 218.375 35.0508 218.766 35.0508 219.246C35.0547 219.766 35.1934 220.182 35.4668 220.494C35.834 220.912 36.2891 221.121 36.832 221.121ZM37.7461 214.318C37.5156 214.08 37.2109 213.961 36.832 213.961C36.4531 213.961 36.1484 214.08 35.918 214.318C35.6875 214.557 35.5723 214.877 35.5723 215.279C35.5723 215.686 35.6602 215.977 35.8359 216.152C36.1406 216.449 36.4727 216.598 36.832 216.598C37.2266 216.598 37.5586 216.449 37.8281 216.152C38.0039 215.957 38.0918 215.666 38.0918 215.279C38.0918 214.877 37.9766 214.557 37.7461 214.318ZM34.1074 237.312L35.0566 236.855H35.1152C35.5488 237.699 36.123 238.121 36.8379 238.121C37.5605 238.121 38.1348 237.699 38.5605 236.855C38.8262 236.328 38.959 235.568 38.959 234.576C38.4551 235.389 37.75 235.797 36.8438 235.801C35.9375 235.801 35.2129 235.514 34.6699 234.939C34.1426 234.381 33.8789 233.707 33.8789 232.918C33.8789 232.121 34.1426 231.443 34.6699 230.885C35.2051 230.318 35.9277 230.035 36.8379 230.035C38.0059 230.035 38.916 230.637 39.5684 231.84C39.9434 232.531 40.1309 233.443 40.1309 234.576C40.1309 235.713 39.9434 236.625 39.5684 237.312C38.916 238.516 38.0059 239.117 36.8379 239.117C35.6738 239.117 34.7637 238.516 34.1074 237.312ZM36.8379 234.793C37.3301 234.793 37.7656 234.602 38.1445 234.219C38.4648 233.895 38.625 233.457 38.625 232.906C38.625 232.418 38.4707 232.004 38.1621 231.664C37.7793 231.242 37.3379 231.031 36.8379 231.031C36.2598 231.031 35.7969 231.238 35.4492 231.652C35.1836 231.969 35.0508 232.387 35.0508 232.906C35.0508 233.453 35.1816 233.873 35.4434 234.166C35.8184 234.584 36.2832 234.793 36.8379 234.793ZM34.5469 256.234V248.066L33.1172 249.332V248.131L34.5469 246.918C35.3281 246.918 35.7188 247.301 35.7188 248.066V255.707L34.6055 256.234H34.5469ZM39.2344 251.576C39.2344 252.58 39.3672 253.34 39.6328 253.855C40.0664 254.699 40.6406 255.121 41.3555 255.121C42.0781 255.121 42.6523 254.699 43.0781 253.855C43.3438 253.328 43.4766 252.568 43.4766 251.576C43.4766 250.584 43.3438 249.824 43.0781 249.297C42.6562 248.453 42.082 248.031 41.3555 248.031C40.6328 248.031 40.0586 248.453 39.6328 249.297C39.3672 249.824 39.2344 250.584 39.2344 251.576ZM38.625 254.312C38.25 253.625 38.0625 252.713 38.0625 251.576C38.0625 250.439 38.25 249.527 38.625 248.84C39.2812 247.637 40.1914 247.035 41.3555 247.035C42.5234 247.035 43.4336 247.637 44.0859 248.84C44.4609 249.531 44.6484 250.443 44.6484 251.576C44.6484 252.713 44.4609 253.625 44.0859 254.312C43.4336 255.516 42.5234 256.117 41.3555 256.117C40.1914 256.117 39.2812 255.516 38.625 254.312ZM34.5469 273.234V265.066L33.1172 266.332V265.131L34.5469 263.918C35.3281 263.918 35.7188 264.301 35.7188 265.066V272.707L34.6055 273.234H34.5469ZM38.7305 273.234V265.066L37.3008 266.332V265.131L38.7305 263.918C39.5117 263.918 39.9023 264.301 39.9023 265.066V272.707L38.7891 273.234H38.7305ZM34.5469 290.234V282.066L33.1172 283.332V282.131L34.5469 280.918C35.3281 280.918 35.7188 281.301 35.7188 282.066V289.707L34.6055 290.234H34.5469ZM39.4863 290C38.5371 290 38.0625 289.613 38.0625 288.84C38.0625 287.586 38.9902 286.543 40.8457 285.711C41.9785 285.203 42.5449 284.564 42.5449 283.795C42.5449 283.275 42.4238 282.875 42.1816 282.594C41.8574 282.219 41.4141 282.031 40.8516 282.031C40.1367 282.031 39.5625 282.453 39.1289 283.297H39.0703L38.1211 282.84C38.7773 281.637 39.6875 281.035 40.8516 281.035C41.7969 281.035 42.5195 281.318 43.0195 281.885C43.4961 282.424 43.7344 283.082 43.7344 283.859C43.7344 284.953 42.9863 285.855 41.4902 286.566C39.9043 287.32 39.1113 288.008 39.1113 288.629C39.1113 288.879 39.2363 289.004 39.4863 289.004H42.1816C42.6426 289.004 42.9316 288.775 43.0488 288.318H43.1074L43.9863 288.734C43.752 289.578 43.1504 290 42.1816 290H39.4863ZM34.5469 307.234V299.066L33.1172 300.332V299.131L34.5469 297.918C35.3281 297.918 35.7188 298.301 35.7188 299.066V306.707L34.6055 307.234H34.5469ZM37.9453 305.312C37.9453 305.312 38.2617 305.16 38.8945 304.855H38.9531C39.3867 305.699 39.9609 306.121 40.6758 306.121C41.2266 306.121 41.6738 305.924 42.0176 305.529C42.3105 305.193 42.457 304.766 42.457 304.246C42.457 303.719 42.3301 303.322 42.0762 303.057C41.7832 302.752 41.3125 302.6 40.6641 302.6L39.9727 301.938L41.8184 299.148H38.7305V299.09L39.1699 298.152H41.8945C42.5938 298.152 42.9434 298.422 42.9434 298.961C42.9434 299.258 42.7676 299.652 42.416 300.145L41.291 301.674C41.8691 301.689 42.3828 301.893 42.832 302.283C43.3633 302.744 43.6289 303.395 43.6289 304.234C43.6289 305.031 43.3672 305.709 42.8438 306.268C42.3086 306.834 41.5859 307.117 40.6758 307.117C39.5117 307.117 38.6016 306.516 37.9453 305.312Z" fill="white"/>
</g>
</g>
<g id="Application top">
<path id="Rectangle 1" d="M0 10C0 4.47715 4.47715 0 10 0H1142C1147.52 0 1152 4.47715 1152 10V19H0V10Z" fill="#C4C4C4"/>
<circle id="Ellipse 1" cx="19.5" cy="10.5" r="3.5" fill="#D11E1E"/>
<circle id="Ellipse 2" cx="29.5" cy="10.5" r="3.5" fill="#EFD343"/>
<circle id="Ellipse 3" cx="39.5" cy="10.5" r="3.5" fill="#1ED13A"/>
<path id="main.py" d="M556.287 8.66016L556.316 9.36328C556.781 8.81641 557.408 8.54297 558.197 8.54297C559.084 8.54297 559.688 8.88281 560.008 9.5625C560.219 9.25781 560.492 9.01172 560.828 8.82422C561.168 8.63672 561.568 8.54297 562.029 8.54297C563.42 8.54297 564.127 9.2793 564.15 10.752V15H563.066V10.8164C563.066 10.3633 562.963 10.0254 562.756 9.80273C562.549 9.57617 562.201 9.46289 561.713 9.46289C561.311 9.46289 560.977 9.58398 560.711 9.82617C560.445 10.0645 560.291 10.3867 560.248 10.793V15H559.158V10.8457C559.158 9.92383 558.707 9.46289 557.805 9.46289C557.094 9.46289 556.607 9.76562 556.346 10.3711V15H555.262V8.66016H556.287ZM569.705 15C569.643 14.875 569.592 14.6523 569.553 14.332C569.049 14.8555 568.447 15.1172 567.748 15.1172C567.123 15.1172 566.609 14.9414 566.207 14.5898C565.809 14.2344 565.609 13.7852 565.609 13.2422C565.609 12.582 565.859 12.0703 566.359 11.707C566.863 11.3398 567.57 11.1562 568.48 11.1562H569.535V10.6582C569.535 10.2793 569.422 9.97852 569.195 9.75586C568.969 9.5293 568.635 9.41602 568.193 9.41602C567.807 9.41602 567.482 9.51367 567.221 9.70898C566.959 9.9043 566.828 10.1406 566.828 10.418H565.738C565.738 10.1016 565.85 9.79688 566.072 9.50391C566.299 9.20703 566.604 8.97266 566.986 8.80078C567.373 8.62891 567.797 8.54297 568.258 8.54297C568.988 8.54297 569.561 8.72656 569.975 9.09375C570.389 9.45703 570.604 9.95898 570.619 10.5996V13.5176C570.619 14.0996 570.693 14.5625 570.842 14.9062V15H569.705ZM567.906 14.1738C568.246 14.1738 568.568 14.0859 568.873 13.9102C569.178 13.7344 569.398 13.5059 569.535 13.2246V11.9238H568.686C567.357 11.9238 566.693 12.3125 566.693 13.0898C566.693 13.4297 566.807 13.6953 567.033 13.8867C567.26 14.0781 567.551 14.1738 567.906 14.1738ZM573.496 15H572.412V8.66016H573.496V15ZM572.324 6.97852C572.324 6.80273 572.377 6.6543 572.482 6.5332C572.592 6.41211 572.752 6.35156 572.963 6.35156C573.174 6.35156 573.334 6.41211 573.443 6.5332C573.553 6.6543 573.607 6.80273 573.607 6.97852C573.607 7.1543 573.553 7.30078 573.443 7.41797C573.334 7.53516 573.174 7.59375 572.963 7.59375C572.752 7.59375 572.592 7.53516 572.482 7.41797C572.377 7.30078 572.324 7.1543 572.324 6.97852ZM576.262 8.66016L576.297 9.45703C576.781 8.84766 577.414 8.54297 578.195 8.54297C579.535 8.54297 580.211 9.29883 580.223 10.8105V15H579.139V10.8047C579.135 10.3477 579.029 10.0098 578.822 9.79102C578.619 9.57227 578.301 9.46289 577.867 9.46289C577.516 9.46289 577.207 9.55664 576.941 9.74414C576.676 9.93164 576.469 10.1777 576.32 10.4824V15H575.236V8.66016H576.262ZM581.881 14.4316C581.881 14.2441 581.936 14.0879 582.045 13.9629C582.158 13.8379 582.326 13.7754 582.549 13.7754C582.771 13.7754 582.939 13.8379 583.053 13.9629C583.17 14.0879 583.229 14.2441 583.229 14.4316C583.229 14.6113 583.17 14.7617 583.053 14.8828C582.939 15.0039 582.771 15.0645 582.549 15.0645C582.326 15.0645 582.158 15.0039 582.045 14.8828C581.936 14.7617 581.881 14.6113 581.881 14.4316ZM590.377 11.9004C590.377 12.8652 590.156 13.6426 589.715 14.2324C589.273 14.8223 588.676 15.1172 587.922 15.1172C587.152 15.1172 586.547 14.873 586.105 14.3848V17.4375H585.021V8.66016H586.012L586.064 9.36328C586.506 8.81641 587.119 8.54297 587.904 8.54297C588.666 8.54297 589.268 8.83008 589.709 9.4043C590.154 9.97852 590.377 10.7773 590.377 11.8008V11.9004ZM589.293 11.7773C589.293 11.0625 589.141 10.498 588.836 10.084C588.531 9.66992 588.113 9.46289 587.582 9.46289C586.926 9.46289 586.434 9.75391 586.105 10.3359V13.3652C586.43 13.9434 586.926 14.2324 587.594 14.2324C588.113 14.2324 588.525 14.0273 588.83 13.6172C589.139 13.2031 589.293 12.5898 589.293 11.7773ZM593.764 13.4121L595.24 8.66016H596.4L593.852 15.9785C593.457 17.0332 592.83 17.5605 591.971 17.5605L591.766 17.543L591.361 17.4668V16.5879L591.654 16.6113C592.021 16.6113 592.307 16.5371 592.51 16.3887C592.717 16.2402 592.887 15.9688 593.02 15.5742L593.26 14.9297L590.998 8.66016H592.182L593.764 13.4121Z" fill="black"/>
</g>
<g id="sides" filter="url(#filter3_f)">
<path id="Rectangle 5" d="M0 47H30V700H10C4.47715 700 0 695.523 0 690V47Z" fill="#3C3F41"/>
<path id="Rectangle 6" d="M0 18.9H-0.1V19V47V47.1H0H1152H1152.1V47V19V18.9H1152H0Z" fill="#3C3F41" stroke="black" stroke-width="0.2"/>
<path id="Informatik" d="M18 107.777V108.902H9.46875V107.777H18ZM11.6602 104.859L12.457 104.824C11.8477 104.34 11.543 103.707 11.543 102.926C11.543 101.586 12.2988 100.91 13.8105 100.898H18V101.982H13.8047C13.3477 101.986 13.0098 102.092 12.791 102.299C12.5723 102.502 12.4629 102.82 12.4629 103.254C12.4629 103.605 12.5566 103.914 12.7441 104.18C12.9316 104.445 13.1777 104.652 13.4824 104.801H18V105.885H11.6602V104.859ZM18 98.7305H12.498V99.7324H11.6602V98.7305H11.0098C10.3301 98.7305 9.80469 98.5488 9.43359 98.1855C9.0625 97.8223 8.87695 97.3086 8.87695 96.6445C8.87695 96.3945 8.91016 96.1465 8.97656 95.9004L9.85547 95.959C9.82031 96.1426 9.80273 96.3379 9.80273 96.5449C9.80273 96.8965 9.90625 97.168 10.1133 97.3594C10.3164 97.5508 10.6094 97.6465 10.9922 97.6465H11.6602V96.293H12.498V97.6465H18V98.7305ZM14.7715 95.3789C14.1504 95.3789 13.5918 95.2578 13.0957 95.0156C12.5996 94.7695 12.2168 94.4297 11.9473 93.9961C11.6777 93.5586 11.543 93.0605 11.543 92.502C11.543 91.6387 11.8418 90.9414 12.4395 90.4102C13.0371 89.875 13.832 89.6074 14.8242 89.6074H14.9004C15.5176 89.6074 16.0723 89.7266 16.5645 89.9648C17.0527 90.1992 17.4336 90.5371 17.707 90.9785C17.9805 91.416 18.1172 91.9199 18.1172 92.4902C18.1172 93.3496 17.8184 94.0469 17.2207 94.582C16.623 95.1133 15.832 95.3789 14.8477 95.3789H14.7715ZM14.9004 94.2891C15.6035 94.2891 16.168 94.127 16.5938 93.8027C17.0195 93.4746 17.2324 93.0371 17.2324 92.4902C17.2324 91.9395 17.0176 91.502 16.5879 91.1777C16.1543 90.8535 15.5488 90.6914 14.7715 90.6914C14.0762 90.6914 13.5137 90.8574 13.084 91.1895C12.6504 91.5176 12.4336 91.9551 12.4336 92.502C12.4336 93.0371 12.6465 93.4688 13.0723 93.7969C13.498 94.125 14.1074 94.2891 14.9004 94.2891ZM12.6328 85.1836C12.6055 85.3477 12.5918 85.5254 12.5918 85.7168C12.5918 86.4277 12.8945 86.9102 13.5 87.1641H18V88.248H11.6602V87.1934L12.3926 87.1758C11.8262 86.8203 11.543 86.3164 11.543 85.6641C11.543 85.4531 11.5703 85.293 11.625 85.1836H12.6328ZM11.6602 83.1621L12.3633 83.1328C11.8164 82.668 11.543 82.041 11.543 81.252C11.543 80.3652 11.8828 79.7617 12.5625 79.4414C12.2578 79.2305 12.0117 78.957 11.8242 78.6211C11.6367 78.2812 11.543 77.8809 11.543 77.4199C11.543 76.0293 12.2793 75.3223 13.752 75.2988H18V76.3828H13.8164C13.3633 76.3828 13.0254 76.4863 12.8027 76.6934C12.5762 76.9004 12.4629 77.248 12.4629 77.7363C12.4629 78.1387 12.584 78.4727 12.8262 78.7383C13.0645 79.0039 13.3867 79.1582 13.793 79.2012H18V80.291H13.8457C12.9238 80.291 12.4629 80.7422 12.4629 81.6445C12.4629 82.3555 12.7656 82.8418 13.3711 83.1035H18V84.1875H11.6602V83.1621ZM18 69.7441C17.875 69.8066 17.6523 69.8574 17.332 69.8965C17.8555 70.4004 18.1172 71.002 18.1172 71.7012C18.1172 72.3262 17.9414 72.8398 17.5898 73.2422C17.2344 73.6406 16.7852 73.8398 16.2422 73.8398C15.582 73.8398 15.0703 73.5898 14.707 73.0898C14.3398 72.5859 14.1563 71.8789 14.1563 70.9688V69.9141H13.6582C13.2793 69.9141 12.9785 70.0273 12.7559 70.2539C12.5293 70.4805 12.416 70.8145 12.416 71.2559C12.416 71.6426 12.5137 71.9668 12.709 72.2285C12.9043 72.4902 13.1406 72.6211 13.418 72.6211V73.7109C13.1016 73.7109 12.7969 73.5996 12.5039 73.377C12.207 73.1504 11.9727 72.8457 11.8008 72.4629C11.6289 72.0762 11.543 71.6523 11.543 71.1914C11.543 70.4609 11.7266 69.8887 12.0938 69.4746C12.457 69.0605 12.959 68.8457 13.5996 68.8301H16.5176C17.0996 68.8301 17.5625 68.7559 17.9062 68.6074H18V69.7441ZM17.1738 71.543C17.1738 71.2031 17.0859 70.8809 16.9102 70.5762C16.7344 70.2715 16.5059 70.0508 16.2246 69.9141H14.9238V70.7637C14.9238 72.0918 15.3125 72.7559 16.0898 72.7559C16.4297 72.7559 16.6953 72.6426 16.8867 72.416C17.0781 72.1895 17.1738 71.8984 17.1738 71.543ZM10.125 65.6602H11.6602V64.4766H12.498V65.6602H16.4297C16.6836 65.6602 16.875 65.6074 17.0039 65.502C17.1289 65.3965 17.1914 65.2168 17.1914 64.9629C17.1914 64.8379 17.168 64.666 17.1211 64.4473H18C18.0781 64.7324 18.1172 65.0098 18.1172 65.2793C18.1172 65.7637 17.9707 66.1289 17.6777 66.375C17.3848 66.6211 16.9688 66.7441 16.4297 66.7441H12.498V67.8984H11.6602V66.7441H10.125V65.6602ZM18 62.0273V63.1113H11.6602V62.0273H18ZM9.97852 63.1992C9.80273 63.1992 9.6543 63.1465 9.5332 63.041C9.41211 62.9316 9.35156 62.7715 9.35156 62.5605C9.35156 62.3496 9.41211 62.1895 9.5332 62.0801C9.6543 61.9707 9.80273 61.916 9.97852 61.916C10.1543 61.916 10.3008 61.9707 10.418 62.0801C10.5352 62.1895 10.5938 62.3496 10.5938 62.5605C10.5938 62.7715 10.5352 62.9316 10.418 63.041C10.3008 63.1465 10.1543 63.1992 9.97852 63.1992ZM15.0645 58.5176L15.7734 59.1973H18V60.2812H9V59.1973H14.4434L13.7461 58.6172L11.6602 56.6426V55.3242L14.3086 57.791L18 55.0371V56.3086L15.0645 58.5176Z" fill="white" fill-opacity="0.5"/>
<rect id="Rectangle 7" x="30" y="47" width="1122" height="29" fill="#454646"/>
<rect id="Rectangle 8" x="30" y="47" width="92" height="29" fill="#C4C4C4" fill-opacity="0.3"/>
<path id="main.py_2" d="M56.7871 59.6602L56.8164 60.3633C57.2812 59.8164 57.9082 59.543 58.6973 59.543C59.584 59.543 60.1875 59.8828 60.5078 60.5625C60.7188 60.2578 60.9922 60.0117 61.3281 59.8242C61.668 59.6367 62.0684 59.543 62.5293 59.543C63.9199 59.543 64.627 60.2793 64.6504 61.752V66H63.5664V61.8164C63.5664 61.3633 63.4629 61.0254 63.2559 60.8027C63.0488 60.5762 62.7012 60.4629 62.2129 60.4629C61.8105 60.4629 61.4766 60.584 61.2109 60.8262C60.9453 61.0645 60.791 61.3867 60.748 61.793V66H59.6582V61.8457C59.6582 60.9238 59.207 60.4629 58.3047 60.4629C57.5938 60.4629 57.1074 60.7656 56.8457 61.3711V66H55.7617V59.6602H56.7871ZM70.2051 66C70.1426 65.875 70.0918 65.6523 70.0527 65.332C69.5488 65.8555 68.9473 66.1172 68.248 66.1172C67.623 66.1172 67.1094 65.9414 66.707 65.5898C66.3086 65.2344 66.1094 64.7852 66.1094 64.2422C66.1094 63.582 66.3594 63.0703 66.8594 62.707C67.3633 62.3398 68.0703 62.1562 68.9805 62.1562H70.0352V61.6582C70.0352 61.2793 69.9219 60.9785 69.6953 60.7559C69.4688 60.5293 69.1348 60.416 68.6934 60.416C68.3066 60.416 67.9824 60.5137 67.7207 60.709C67.459 60.9043 67.3281 61.1406 67.3281 61.418H66.2383C66.2383 61.1016 66.3496 60.7969 66.5723 60.5039C66.7988 60.207 67.1035 59.9727 67.4863 59.8008C67.873 59.6289 68.2969 59.543 68.7578 59.543C69.4883 59.543 70.0605 59.7266 70.4746 60.0938C70.8887 60.457 71.1035 60.959 71.1191 61.5996V64.5176C71.1191 65.0996 71.1934 65.5625 71.3418 65.9062V66H70.2051ZM68.4062 65.1738C68.7461 65.1738 69.0684 65.0859 69.373 64.9102C69.6777 64.7344 69.8984 64.5059 70.0352 64.2246V62.9238H69.1855C67.8574 62.9238 67.1934 63.3125 67.1934 64.0898C67.1934 64.4297 67.3066 64.6953 67.5332 64.8867C67.7598 65.0781 68.0508 65.1738 68.4062 65.1738ZM73.9961 66H72.9121V59.6602H73.9961V66ZM72.8242 57.9785C72.8242 57.8027 72.877 57.6543 72.9824 57.5332C73.0918 57.4121 73.252 57.3516 73.4629 57.3516C73.6738 57.3516 73.834 57.4121 73.9434 57.5332C74.0527 57.6543 74.1074 57.8027 74.1074 57.9785C74.1074 58.1543 74.0527 58.3008 73.9434 58.418C73.834 58.5352 73.6738 58.5938 73.4629 58.5938C73.252 58.5938 73.0918 58.5352 72.9824 58.418C72.877 58.3008 72.8242 58.1543 72.8242 57.9785ZM76.7617 59.6602L76.7969 60.457C77.2812 59.8477 77.9141 59.543 78.6953 59.543C80.0352 59.543 80.7109 60.2988 80.7227 61.8105V66H79.6387V61.8047C79.6348 61.3477 79.5293 61.0098 79.3223 60.791C79.1191 60.5723 78.8008 60.4629 78.3672 60.4629C78.0156 60.4629 77.707 60.5566 77.4414 60.7441C77.1758 60.9316 76.9688 61.1777 76.8203 61.4824V66H75.7363V59.6602H76.7617ZM82.3809 65.4316C82.3809 65.2441 82.4355 65.0879 82.5449 64.9629C82.6582 64.8379 82.8262 64.7754 83.0488 64.7754C83.2715 64.7754 83.4395 64.8379 83.5527 64.9629C83.6699 65.0879 83.7285 65.2441 83.7285 65.4316C83.7285 65.6113 83.6699 65.7617 83.5527 65.8828C83.4395 66.0039 83.2715 66.0645 83.0488 66.0645C82.8262 66.0645 82.6582 66.0039 82.5449 65.8828C82.4355 65.7617 82.3809 65.6113 82.3809 65.4316ZM90.877 62.9004C90.877 63.8652 90.6562 64.6426 90.2148 65.2324C89.7734 65.8223 89.1758 66.1172 88.4219 66.1172C87.6523 66.1172 87.0469 65.873 86.6055 65.3848V68.4375H85.5215V59.6602H86.5117L86.5645 60.3633C87.0059 59.8164 87.6191 59.543 88.4043 59.543C89.166 59.543 89.7676 59.8301 90.209 60.4043C90.6543 60.9785 90.877 61.7773 90.877 62.8008V62.9004ZM89.793 62.7773C89.793 62.0625 89.6406 61.498 89.3359 61.084C89.0312 60.6699 88.6133 60.4629 88.082 60.4629C87.4258 60.4629 86.9336 60.7539 86.6055 61.3359V64.3652C86.9297 64.9434 87.4258 65.2324 88.0938 65.2324C88.6133 65.2324 89.0254 65.0273 89.3301 64.6172C89.6387 64.2031 89.793 63.5898 89.793 62.7773ZM94.2637 64.4121L95.7402 59.6602H96.9004L94.3516 66.9785C93.957 68.0332 93.3301 68.5605 92.4707 68.5605L92.2656 68.543L91.8613 68.4668V67.5879L92.1543 67.6113C92.5215 67.6113 92.8066 67.5371 93.0098 67.3887C93.2168 67.2402 93.3867 66.9688 93.5195 66.5742L93.7598 65.9297L91.498 59.6602H92.6816L94.2637 64.4121Z" fill="white" fill-opacity="0.5"/>
<path id="Polygon 1" d="M1062 62L1044 72.3923V51.6077L1062 62Z" fill="#24C220"/>
<circle id="Ellipse 4" cx="1076.5" cy="61.5" r="7" fill="#DF1919" stroke="#961414"/>
<g id="play_2">
<rect id="Rectangle 9_2" x="1102" y="53" width="15" height="18" fill="#C4C4C4"/>
<rect id="Rectangle 10_2" x="1107" y="53" width="5" height="18" fill="#454646"/>
</g>
<rect id="Rectangle 11" x="1125" y="54" width="16" height="16" fill="#C4C4C4"/>
<line id="Line 10" x1="1140" y1="108" x2="1140" y2="249" stroke="white" stroke-opacity="0.55" stroke-width="4"/>
<path id="Terminal:" d="M54.1758 515.395H51.4336V523H50.3145V515.395H47.5781V514.469H54.1758V515.395ZM57.3164 523.117C56.457 523.117 55.7578 522.836 55.2188 522.273C54.6797 521.707 54.4102 520.951 54.4102 520.006V519.807C54.4102 519.178 54.5293 518.617 54.7676 518.125C55.0098 517.629 55.3457 517.242 55.7754 516.965C56.209 516.684 56.6777 516.543 57.1816 516.543C58.0059 516.543 58.6465 516.814 59.1035 517.357C59.5605 517.9 59.7891 518.678 59.7891 519.689V520.141H55.4941C55.5098 520.766 55.6914 521.271 56.0391 521.658C56.3906 522.041 56.8359 522.232 57.375 522.232C57.7578 522.232 58.082 522.154 58.3477 521.998C58.6133 521.842 58.8457 521.635 59.0449 521.377L59.707 521.893C59.1758 522.709 58.3789 523.117 57.3164 523.117ZM57.1816 517.434C56.7441 517.434 56.377 517.594 56.0801 517.914C55.7832 518.23 55.5996 518.676 55.5293 519.25H58.7051V519.168C58.6738 518.617 58.5254 518.191 58.2598 517.891C57.9941 517.586 57.6348 517.434 57.1816 517.434ZM64.1133 517.633C63.9492 517.605 63.7715 517.592 63.5801 517.592C62.8691 517.592 62.3867 517.895 62.1328 518.5V523H61.0488V516.66H62.1035L62.1211 517.393C62.4766 516.826 62.9805 516.543 63.6328 516.543C63.8438 516.543 64.0039 516.57 64.1133 516.625V517.633ZM66.1348 516.66L66.1641 517.363C66.6289 516.816 67.2559 516.543 68.0449 516.543C68.9316 516.543 69.5352 516.883 69.8555 517.562C70.0664 517.258 70.3398 517.012 70.6758 516.824C71.0156 516.637 71.416 516.543 71.877 516.543C73.2676 516.543 73.9746 517.279 73.998 518.752V523H72.9141V518.816C72.9141 518.363 72.8105 518.025 72.6035 517.803C72.3965 517.576 72.0488 517.463 71.5605 517.463C71.1582 517.463 70.8242 517.584 70.5586 517.826C70.293 518.064 70.1387 518.387 70.0957 518.793V523H69.0059V518.846C69.0059 517.924 68.5547 517.463 67.6523 517.463C66.9414 517.463 66.4551 517.766 66.1934 518.371V523H65.1094V516.66H66.1348ZM76.8164 523H75.7324V516.66H76.8164V523ZM75.6445 514.979C75.6445 514.803 75.6973 514.654 75.8027 514.533C75.9121 514.412 76.0723 514.352 76.2832 514.352C76.4941 514.352 76.6543 514.412 76.7637 514.533C76.873 514.654 76.9277 514.803 76.9277 514.979C76.9277 515.154 76.873 515.301 76.7637 515.418C76.6543 515.535 76.4941 515.594 76.2832 515.594C76.0723 515.594 75.9121 515.535 75.8027 515.418C75.6973 515.301 75.6445 515.154 75.6445 514.979ZM79.582 516.66L79.6172 517.457C80.1016 516.848 80.7344 516.543 81.5156 516.543C82.8555 516.543 83.5312 517.299 83.543 518.811V523H82.459V518.805C82.4551 518.348 82.3496 518.01 82.1426 517.791C81.9395 517.572 81.6211 517.463 81.1875 517.463C80.8359 517.463 80.5273 517.557 80.2617 517.744C79.9961 517.932 79.7891 518.178 79.6406 518.482V523H78.5566V516.66H79.582ZM89.0918 523C89.0293 522.875 88.9785 522.652 88.9395 522.332C88.4355 522.855 87.834 523.117 87.1348 523.117C86.5098 523.117 85.9961 522.941 85.5938 522.59C85.1953 522.234 84.9961 521.785 84.9961 521.242C84.9961 520.582 85.2461 520.07 85.7461 519.707C86.25 519.34 86.957 519.156 87.8672 519.156H88.9219V518.658C88.9219 518.279 88.8086 517.979 88.582 517.756C88.3555 517.529 88.0215 517.416 87.5801 517.416C87.1934 517.416 86.8691 517.514 86.6074 517.709C86.3457 517.904 86.2148 518.141 86.2148 518.418H85.125C85.125 518.102 85.2363 517.797 85.459 517.504C85.6855 517.207 85.9902 516.973 86.373 516.801C86.7598 516.629 87.1836 516.543 87.6445 516.543C88.375 516.543 88.9473 516.727 89.3613 517.094C89.7754 517.457 89.9902 517.959 90.0059 518.6V521.518C90.0059 522.1 90.0801 522.562 90.2285 522.906V523H89.0918ZM87.293 522.174C87.6328 522.174 87.9551 522.086 88.2598 521.91C88.5645 521.734 88.7852 521.506 88.9219 521.225V519.924H88.0723C86.7441 519.924 86.0801 520.312 86.0801 521.09C86.0801 521.43 86.1934 521.695 86.4199 521.887C86.6465 522.078 86.9375 522.174 87.293 522.174ZM92.8828 523H91.7988V514H92.8828V523ZM94.5879 522.432C94.5879 522.244 94.6426 522.088 94.752 521.963C94.8652 521.838 95.0332 521.775 95.2559 521.775C95.4785 521.775 95.6465 521.838 95.7598 521.963C95.877 522.088 95.9355 522.244 95.9355 522.432C95.9355 522.611 95.877 522.762 95.7598 522.883C95.6465 523.004 95.4785 523.064 95.2559 523.064C95.0332 523.064 94.8652 523.004 94.752 522.883C94.6426 522.762 94.5879 522.611 94.5879 522.432ZM94.5938 517.258C94.5938 517.07 94.6484 516.914 94.7578 516.789C94.8711 516.664 95.0391 516.602 95.2617 516.602C95.4844 516.602 95.6523 516.664 95.7656 516.789C95.8828 516.914 95.9414 517.07 95.9414 517.258C95.9414 517.438 95.8828 517.588 95.7656 517.709C95.6523 517.83 95.4844 517.891 95.2617 517.891C95.0391 517.891 94.8711 517.83 94.7578 517.709C94.6484 517.588 94.5938 517.438 94.5938 517.258Z" fill="white"/>
</g>
<g id="lines" filter="url(#filter4_f)">
<line id="Line 1" x1="86.5" y1="118.5" x2="216.5" y2="118.5" stroke="white" stroke-opacity="0.4" stroke-width="3" stroke-linecap="round"/>
<line id="Line 2" x1="86.5" y1="135.5" x2="183.5" y2="135.5" stroke="white" stroke-opacity="0.4" stroke-width="3" stroke-linecap="round"/>
<line id="Line 1_2" x1="86.5" y1="101.5" x2="183.5" y2="101.5" stroke="white" stroke-opacity="0.4" stroke-width="3" stroke-linecap="round"/>
<line id="Line 6" x1="86.5" y1="237.5" x2="159.5" y2="237.5" stroke="white" stroke-opacity="0.4" stroke-width="3" stroke-linecap="round"/>
<line id="Line 7" x1="106.5" y1="254.5" x2="183.5" y2="254.5" stroke="white" stroke-opacity="0.4" stroke-width="3" stroke-linecap="round"/>
<line id="Line 8" x1="106.5" y1="271.5" x2="183.5" y2="271.5" stroke="white" stroke-opacity="0.4" stroke-width="3" stroke-linecap="round"/>
<line id="Line 9" x1="86.5" y1="288.5" x2="126.5" y2="288.5" stroke="white" stroke-opacity="0.4" stroke-width="3" stroke-linecap="round"/>
<line id="Line 3" x1="86.5" y1="169.5" x2="293.5" y2="169.5" stroke="white" stroke-opacity="0.4" stroke-width="3" stroke-linecap="round"/>
<line id="Line 4" x1="86.5" y1="186.5" x2="343.5" y2="186.5" stroke="white" stroke-opacity="0.4" stroke-width="3" stroke-linecap="round"/>
<path id="Line 5" d="M86.5 203.5H330" stroke="white" stroke-opacity="0.4" stroke-width="3" stroke-linecap="round"/>
</g>
<g id="Text" filter="url(#filter5_f)">
<path id="Info" d="M76.209 37H75.4883V28.4688H76.209V37ZM79.0332 30.6602L79.0566 31.7441C79.2949 31.3535 79.5918 31.0566 79.9473 30.8535C80.3027 30.6465 80.6953 30.543 81.125 30.543C81.8047 30.543 82.3105 30.7344 82.6426 31.1172C82.9746 31.5 83.1426 32.0742 83.1465 32.8398V37H82.4492V32.834C82.4453 32.2676 82.3242 31.8457 82.0859 31.5684C81.8516 31.291 81.4746 31.1523 80.9551 31.1523C80.5215 31.1523 80.1367 31.2891 79.8008 31.5625C79.4688 31.832 79.2227 32.1973 79.0625 32.6582V37H78.3652V30.6602H79.0332ZM85.4668 37V31.2344H84.418V30.6602H85.4668V29.8926C85.4668 29.2441 85.6309 28.7461 85.959 28.3984C86.291 28.0508 86.752 27.877 87.3418 27.877C87.6074 27.877 87.8555 27.9102 88.0859 27.9766L88.0332 28.5625C87.8379 28.5156 87.625 28.4922 87.3945 28.4922C87.0078 28.4922 86.707 28.6133 86.4922 28.8555C86.2773 29.0938 86.1699 29.4336 86.1699 29.875V30.6602H87.6816V31.2344H86.1699V37H85.4668ZM88.5488 33.7363C88.5488 33.127 88.666 32.5781 88.9004 32.0898C89.1387 31.6016 89.4727 31.2227 89.9023 30.9531C90.3359 30.6797 90.8262 30.543 91.373 30.543C92.2168 30.543 92.9004 30.8398 93.4238 31.4336C93.9473 32.0234 94.209 32.8066 94.209 33.7832V33.9297C94.209 34.543 94.0898 35.0957 93.8516 35.5879C93.6172 36.0762 93.2852 36.4531 92.8555 36.7188C92.4258 36.9844 91.9355 37.1172 91.3848 37.1172C90.5449 37.1172 89.8613 36.8223 89.334 36.2324C88.8105 35.6387 88.5488 34.8535 88.5488 33.877V33.7363ZM89.252 33.9297C89.252 34.6875 89.4473 35.3105 89.8379 35.7988C90.2324 36.2832 90.748 36.5254 91.3848 36.5254C92.0176 36.5254 92.5293 36.2832 92.9199 35.7988C93.3145 35.3105 93.5117 34.668 93.5117 33.8711V33.7363C93.5117 33.252 93.4219 32.8086 93.2422 32.4062C93.0625 32.0039 92.8105 31.6934 92.4863 31.4746C92.1621 31.252 91.791 31.1406 91.373 31.1406C90.748 31.1406 90.2383 31.3867 89.8438 31.8789C89.4492 32.3672 89.252 33.0078 89.252 33.8008V33.9297Z" fill="white" fill-opacity="0.4"/>
<path id="main.py_3" d="M108.787 30.6602L108.811 31.6914C109.045 31.3086 109.338 31.0215 109.689 30.8301C110.041 30.6387 110.432 30.543 110.861 30.543C111.861 30.543 112.496 30.9531 112.766 31.7734C112.992 31.3789 113.295 31.0762 113.674 30.8652C114.053 30.6504 114.471 30.543 114.928 30.543C116.287 30.543 116.98 31.2852 117.008 32.7695V37H116.305V32.8223C116.301 32.2559 116.178 31.8359 115.936 31.5625C115.697 31.2891 115.307 31.1523 114.764 31.1523C114.26 31.1602 113.834 31.3242 113.486 31.6445C113.139 31.9609 112.945 32.3477 112.906 32.8047V37H112.203V32.7695C112.199 32.2266 112.07 31.8223 111.816 31.5566C111.566 31.2871 111.18 31.1523 110.656 31.1523C110.215 31.1523 109.836 31.2793 109.52 31.5332C109.203 31.7832 108.969 32.1562 108.816 32.6523V37H108.113V30.6602H108.787ZM122.791 37C122.721 36.8008 122.676 36.5059 122.656 36.1152C122.41 36.4355 122.096 36.6836 121.713 36.8594C121.334 37.0312 120.932 37.1172 120.506 37.1172C119.896 37.1172 119.402 36.9473 119.023 36.6074C118.648 36.2676 118.461 35.8379 118.461 35.3184C118.461 34.7012 118.717 34.2129 119.229 33.8535C119.744 33.4941 120.461 33.3145 121.379 33.3145H122.65V32.5938C122.65 32.1406 122.51 31.7852 122.229 31.5273C121.951 31.2656 121.545 31.1348 121.01 31.1348C120.521 31.1348 120.117 31.2598 119.797 31.5098C119.477 31.7598 119.316 32.0605 119.316 32.4121L118.613 32.4062C118.613 31.9023 118.848 31.4668 119.316 31.0996C119.785 30.7285 120.361 30.543 121.045 30.543C121.752 30.543 122.309 30.7207 122.715 31.0762C123.125 31.4277 123.336 31.9199 123.348 32.5527V35.5527C123.348 36.166 123.412 36.625 123.541 36.9297V37H122.791ZM120.588 36.4961C121.057 36.4961 121.475 36.3828 121.842 36.1562C122.213 35.9297 122.482 35.627 122.65 35.248V33.8535H121.396C120.697 33.8613 120.15 33.9902 119.756 34.2402C119.361 34.4863 119.164 34.8262 119.164 35.2598C119.164 35.6152 119.295 35.9102 119.557 36.1445C119.822 36.3789 120.166 36.4961 120.588 36.4961ZM126.008 37H125.305V30.6602H126.008V37ZM125.182 28.8262C125.182 28.6934 125.225 28.582 125.311 28.4922C125.396 28.3984 125.514 28.3516 125.662 28.3516C125.811 28.3516 125.928 28.3984 126.014 28.4922C126.104 28.582 126.148 28.6934 126.148 28.8262C126.148 28.959 126.104 29.0703 126.014 29.1602C125.928 29.25 125.811 29.2949 125.662 29.2949C125.514 29.2949 125.396 29.25 125.311 29.1602C125.225 29.0703 125.182 28.959 125.182 28.8262ZM128.586 30.6602L128.609 31.7441C128.848 31.3535 129.145 31.0566 129.5 30.8535C129.855 30.6465 130.248 30.543 130.678 30.543C131.357 30.543 131.863 30.7344 132.195 31.1172C132.527 31.5 132.695 32.0742 132.699 32.8398V37H132.002V32.834C131.998 32.2676 131.877 31.8457 131.639 31.5684C131.404 31.291 131.027 31.1523 130.508 31.1523C130.074 31.1523 129.689 31.2891 129.354 31.5625C129.021 31.832 128.775 32.1973 128.615 32.6582V37H127.918V30.6602H128.586ZM134.451 36.5781C134.451 36.4414 134.494 36.3262 134.58 36.2324C134.67 36.1348 134.793 36.0859 134.949 36.0859C135.105 36.0859 135.229 36.1348 135.318 36.2324C135.408 36.3262 135.453 36.4414 135.453 36.5781C135.453 36.7148 135.408 36.8281 135.318 36.918C135.229 37.0039 135.105 37.0469 134.949 37.0469C134.793 37.0469 134.67 37.0039 134.58 36.918C134.494 36.8281 134.451 36.7148 134.451 36.5781ZM142.484 33.8945C142.484 34.8828 142.266 35.668 141.828 36.25C141.391 36.8281 140.805 37.1172 140.07 37.1172C139.203 37.1172 138.539 36.8125 138.078 36.2031V39.4375H137.381V30.6602H138.031L138.066 31.5566C138.523 30.8809 139.186 30.543 140.053 30.543C140.811 30.543 141.404 30.8301 141.834 31.4043C142.268 31.9785 142.484 32.7754 142.484 33.7949V33.8945ZM141.781 33.7715C141.781 32.9629 141.615 32.3242 141.283 31.8555C140.951 31.3867 140.488 31.1523 139.895 31.1523C139.465 31.1523 139.096 31.2559 138.787 31.4629C138.479 31.6699 138.242 31.9707 138.078 32.3652V35.4062C138.246 35.7695 138.486 36.0469 138.799 36.2383C139.111 36.4297 139.48 36.5254 139.906 36.5254C140.496 36.5254 140.955 36.291 141.283 35.8223C141.615 35.3496 141.781 34.666 141.781 33.7715ZM145.982 35.9922L147.834 30.6602H148.59L145.883 38.0781L145.742 38.4062C145.395 39.1758 144.857 39.5605 144.131 39.5605C143.963 39.5605 143.783 39.5332 143.592 39.4785L143.586 38.8984L143.949 38.9336C144.293 38.9336 144.57 38.8477 144.781 38.6758C144.996 38.5078 145.178 38.2168 145.326 37.8027L145.637 36.9473L143.246 30.6602H144.014L145.982 35.9922Z" fill="white" fill-opacity="0.4"/>
<path id="RWG" d="M37.248 33.877H35.8477V37H34.0898V28.4688H37.2598C38.2676 28.4688 39.0449 28.6934 39.5918 29.1426C40.1387 29.5918 40.4121 30.2266 40.4121 31.0469C40.4121 31.6289 40.2852 32.1152 40.0312 32.5059C39.7812 32.8926 39.4004 33.2012 38.8887 33.4316L40.7344 36.918V37H38.8477L37.248 33.877ZM35.8477 32.4531H37.2656C37.707 32.4531 38.0488 32.3418 38.291 32.1191C38.5332 31.8926 38.6543 31.582 38.6543 31.1875C38.6543 30.7852 38.5391 30.4688 38.3086 30.2383C38.082 30.0078 37.7324 29.8926 37.2598 29.8926H35.8477V32.4531ZM48.3984 34.5391L49.5469 28.4688H51.2988L49.4062 37H47.6367L46.248 31.293L44.8594 37H43.0898L41.1973 28.4688H42.9492L44.1035 34.5273L45.5098 28.4688H46.998L48.3984 34.5391ZM59.0039 35.9219C58.6875 36.3008 58.2402 36.5957 57.6621 36.8066C57.084 37.0137 56.4434 37.1172 55.7402 37.1172C55.002 37.1172 54.3535 36.957 53.7949 36.6367C53.2402 36.3125 52.8105 35.8438 52.5059 35.2305C52.2051 34.6172 52.0508 33.8965 52.043 33.0684V32.4883C52.043 31.6367 52.1855 30.9004 52.4707 30.2793C52.7598 29.6543 53.1738 29.1777 53.7129 28.8496C54.2559 28.5176 54.8906 28.3516 55.6172 28.3516C56.6289 28.3516 57.4199 28.5938 57.9902 29.0781C58.5605 29.5586 58.8984 30.2598 59.0039 31.1816H57.293C57.2148 30.6934 57.041 30.3359 56.7715 30.1094C56.5059 29.8828 56.1387 29.7695 55.6699 29.7695C55.0723 29.7695 54.6172 29.9941 54.3047 30.4434C53.9922 30.8926 53.834 31.5605 53.8301 32.4473V32.9922C53.8301 33.8867 54 34.5625 54.3398 35.0195C54.6797 35.4766 55.1777 35.7051 55.834 35.7051C56.4941 35.7051 56.9648 35.5645 57.2461 35.2832V33.8125H55.6465V32.5176H59.0039V35.9219Z" fill="white" fill-opacity="0.4"/>
<path id="Vector 1" d="M64 43L69 33L64 23" stroke="#7D7E7F"/>
<path id="Vector 2" d="M98 43L103 33L98 23" stroke="#7D7E7F"/>
</g>
</g>
<defs>
<filter id="filter0_f" x="35" y="541.608" width="20" height="22.7846" filterUnits="userSpaceOnUse" color-interpolation-filters="sRGB">
<feFlood flood-opacity="0" result="BackgroundImageFix"/>
<feBlend mode="normal" in="SourceGraphic" in2="BackgroundImageFix" result="shape"/>
<feGaussianBlur stdDeviation="0.5" result="effect1_foregroundBlur"/>
</filter>
<filter id="filter1_f" x="33" y="574" width="17" height="17" filterUnits="userSpaceOnUse" color-interpolation-filters="sRGB">
<feFlood flood-opacity="0" result="BackgroundImageFix"/>
<feBlend mode="normal" in="SourceGraphic" in2="BackgroundImageFix" result="shape"/>
<feGaussianBlur stdDeviation="0.5" result="effect1_foregroundBlur"/>
</filter>
<filter id="filter2_f" x="28.5" y="73.5" width="33" height="432" filterUnits="userSpaceOnUse" color-interpolation-filters="sRGB">
<feFlood flood-opacity="0" result="BackgroundImageFix"/>
<feBlend mode="normal" in="SourceGraphic" in2="BackgroundImageFix" result="shape"/>
<feGaussianBlur stdDeviation="0.75" result="effect1_foregroundBlur"/>
</filter>
<filter id="filter3_f" x="-1.7" y="17.3" width="1155.4" height="684.2" filterUnits="userSpaceOnUse" color-interpolation-filters="sRGB">
<feFlood flood-opacity="0" result="BackgroundImageFix"/>
<feBlend mode="normal" in="SourceGraphic" in2="BackgroundImageFix" result="shape"/>
<feGaussianBlur stdDeviation="0.75" result="effect1_foregroundBlur"/>
</filter>
<filter id="filter4_f" x="81" y="96" width="268" height="198" filterUnits="userSpaceOnUse" color-interpolation-filters="sRGB">
<feFlood flood-opacity="0" result="BackgroundImageFix"/>
<feBlend mode="normal" in="SourceGraphic" in2="BackgroundImageFix" result="shape"/>
<feGaussianBlur stdDeviation="2" result="effect1_foregroundBlur"/>
</filter>
<filter id="filter5_f" x="28.5" y="21.2764" width="124" height="23.4472" filterUnits="userSpaceOnUse" color-interpolation-filters="sRGB">
<feFlood flood-opacity="0" result="BackgroundImageFix"/>
<feBlend mode="normal" in="SourceGraphic" in2="BackgroundImageFix" result="shape"/>
<feGaussianBlur stdDeviation="0.75" result="effect1_foregroundBlur"/>
</filter>
</defs>
</svg>
