<svg width="566" height="566" viewBox="0 0 566 566" fill="none" xmlns="http://www.w3.org/2000/svg">
<g filter="url(#filter0_di)">
<path d="M494.75 212.514C528.084 245.847 544.75 262.514 544.75 283.224C544.75 303.935 528.084 320.602 494.75 353.935L341.072 507.614C317.331 483.873 305.46 472.002 299.477 459.005C289.703 437.773 289.703 413.329 299.477 392.097C305.46 379.1 317.331 367.229 341.072 343.488L483.398 201.162L494.75 212.514Z" fill="url(#paint0_linear)"/>
<path d="M212.132 70.868C245.465 37.5346 262.132 20.868 282.843 20.868C303.553 20.868 320.22 37.5346 353.553 70.868L501.677 218.991C475.982 244.685 463.135 257.532 448.869 263.606C428.846 272.131 406.215 272.131 386.192 263.606C371.926 257.532 359.079 244.685 333.385 218.991L198.697 84.3032L212.132 70.868Z" fill="url(#paint1_linear)"/>
<path d="M70.7107 353.711C37.3773 320.377 20.7107 303.711 20.7107 283C20.7107 262.289 37.3773 245.623 70.7107 212.289L224.389 58.6107C248.13 82.3518 260.001 94.2223 265.984 107.219C275.758 128.451 275.758 152.896 265.984 174.128C260.001 187.125 248.13 198.995 224.389 222.736L82.0627 365.063L70.7107 353.711Z" fill="url(#paint2_linear)"/>
<path d="M353.335 494.913C320.001 528.247 303.335 544.913 282.624 544.913C261.913 544.913 245.247 528.247 211.913 494.913L63.7901 346.79C89.4843 321.096 102.331 308.249 116.598 302.175C136.62 293.65 159.252 293.65 179.275 302.175C193.541 308.249 206.388 321.096 232.082 346.79L366.77 481.478L353.335 494.913Z" fill="url(#paint3_linear)"/>
<path d="M493.1 355.585L340.847 507.838C317.311 484.302 305.543 472.534 299.573 459.669C289.663 438.313 289.663 413.676 299.573 392.319C305.543 379.454 317.311 367.686 340.847 344.15L411.256 273.742L493.1 355.585Z" fill="url(#paint4_linear)"/>
</g>
<defs>
<filter id="filter0_di" x="-4" y="0.157288" width="573.685" height="573.685" filterUnits="userSpaceOnUse" color-interpolation-filters="sRGB">
<feFlood flood-opacity="0" result="BackgroundImageFix"/>
<feColorMatrix in="SourceAlpha" type="matrix" values="0 0 0 0 0 0 0 0 0 0 0 0 0 0 0 0 0 0 127 0" result="hardAlpha"/>
<feOffset dy="4"/>
<feGaussianBlur stdDeviation="2"/>
<feComposite in2="hardAlpha" operator="out"/>
<feColorMatrix type="matrix" values="0 0 0 0 0 0 0 0 0 0 0 0 0 0 0 0 0 0 0.25 0"/>
<feBlend mode="normal" in2="BackgroundImageFix" result="effect1_dropShadow"/>
<feBlend mode="normal" in="SourceGraphic" in2="effect1_dropShadow" result="shape"/>
<feColorMatrix in="SourceAlpha" type="matrix" values="0 0 0 0 0 0 0 0 0 0 0 0 0 0 0 0 0 0 127 0" result="hardAlpha"/>
<feOffset dy="4"/>
<feGaussianBlur stdDeviation="2"/>
<feComposite in2="hardAlpha" operator="arithmetic" k2="-1" k3="1"/>
<feColorMatrix type="matrix" values="0 0 0 0 0 0 0 0 0 0 0 0 0 0 0 0 0 0 0.25 0"/>
<feBlend mode="normal" in2="shape" result="effect2_innerShadow"/>
</filter>
<linearGradient id="paint0_linear" x1="300.04" y1="466.582" x2="524.43" y2="242.193" gradientUnits="userSpaceOnUse">
<stop stop-color="#064B5A"/>
<stop offset="0.411458" stop-color="#064B5A" stop-opacity="0.74"/>
<stop offset="1" stop-color="#8FE8FC"/>
</linearGradient>
<linearGradient id="paint1_linear" x1="459.604" y1="261.064" x2="240.77" y2="42.2302" gradientUnits="userSpaceOnUse">
<stop stop-color="#064B5A"/>
<stop offset="0.411458" stop-color="#064B5A" stop-opacity="0.74"/>
<stop offset="1" stop-color="#8FE8FC"/>
</linearGradient>
<linearGradient id="paint2_linear" x1="225.137" y1="105.022" x2="0.747598" y2="329.411" gradientUnits="userSpaceOnUse">
<stop stop-color="#064B5A"/>
<stop offset="0.411458" stop-color="#064B5A" stop-opacity="0.74"/>
<stop offset="1" stop-color="#8FE8FC"/>
</linearGradient>
<linearGradient id="paint3_linear" x1="105.863" y1="304.717" x2="324.697" y2="523.551" gradientUnits="userSpaceOnUse">
<stop stop-color="#064B5A"/>
<stop offset="0.411458" stop-color="#064B5A" stop-opacity="0.74"/>
<stop offset="1" stop-color="#8FE8FC"/>
</linearGradient>
<linearGradient id="paint4_linear" x1="299.925" y1="466.916" x2="452.178" y2="314.664" gradientUnits="userSpaceOnUse">
<stop stop-color="#064B5A"/>
<stop offset="0.411458" stop-color="#064B5A" stop-opacity="0.74"/>
<stop offset="1" stop-color="#5B9EAD"/>
</linearGradient>
</defs>
</svg>
